<svg xmlns="http://www.w3.org/2000/svg" width="56" height="56" viewBox="0 0 56 56"><defs><style>.a{fill:url(#a);}.b{fill-rule:evenodd;fill:url(#b);}</style><linearGradient id="a" x1="0.755" y1="0.123" x2="0.246" y2="0.877" gradientUnits="objectBoundingBox"><stop offset="0" stop-color="#005b71"/><stop offset="1" stop-color="#007c7d"/></linearGradient><linearGradient id="b" x1="0.512" y1="0.31" x2="0.395" y2="1.241" gradientUnits="objectBoundingBox"><stop offset="0" stop-color="#fff"/><stop offset="1" stop-color="#c5c6c6"/></linearGradient></defs><g transform="translate(-972.044 -189)"><path class="a" d="M8.96,0H47.04A8.96,8.96,0,0,1,56,8.96V47.04A8.96,8.96,0,0,1,47.04,56H8.96A8.96,8.96,0,0,1,0,47.04V8.96A8.96,8.96,0,0,1,8.96,0Z" transform="translate(972.044 189)"/><path class="b" d="M107.409,802.117a18.331,18.331,0,0,1-7.645-.944c-2.625-.906-2.881-1.5-4.408-2.387a34.216,34.216,0,0,0,1.686,3.346c1.124,2.215,2.465,4.773,2.676,7.344.137,1.663.517,2.539,2.036,2.842,1.684.338,7.758.074,9.883.065,6.195-.026,5.007-.262,5.794-4.156.529-2.617,2.319-5.824,3.982-8.757a24.669,24.669,0,0,0,3.874-9.241,16.517,16.517,0,0,0-2.3-11.37q.171,1.32.642,4.487a16.087,16.087,0,0,1-1.81,8.983c-1.659,3.494-9.777,9.22-14.413,9.788Zm.6-16.829-7.735.83,10.337-11.1c-6-1.492-11.614,1.893-14.176,4.759a15.309,15.309,0,0,0-3.454,6.383c-1.126,4.45.08,6.569.117,8.715-.064-.4-.749-1.779-.974-2.593a17.073,17.073,0,0,1,6.594-18.651,18.261,18.261,0,0,1,7.613-2.922h0c4.573-.96,12.17,1.24,14.695,5.388l-6.229,5.085,3.751.273L101.871,796.2Z" transform="translate(891.552 -574.489)"/></g></svg>